<svg width="120" height="120" viewBox="0 0 120 120" xmlns="http://www.w3.org/2000/svg">
  <!-- Background circle -->
  <circle cx="60" cy="60" r="55" fill="none" stroke="#4F46E5" stroke-width="2" opacity="0.1"/>
  
  <!-- Head -->
  <circle cx="35" cy="35" r="8" fill="#06B6D4"/>
  
  <!-- Upper body/arm - curved band with 3D effect -->
  <path d="M 35 43 Q 45 50 55 60 Q 65 70 75 75" 
        stroke="#06B6D4" 
        stroke-width="12" 
        fill="none" 
        stroke-linecap="round"/>
  
  <!-- Upper body shadow for 3D effect -->
  <path d="M 35 43 Q 45 50 55 60 Q 65 70 75 75" 
        stroke="#0891B2" 
        stroke-width="8" 
        fill="none" 
        stroke-linecap="round"
        opacity="0.6"/>
  
  <!-- Lower body/leg - curved band with 3D effect -->
  <path d="M 55 60 Q 65 75 70 85 Q 75 95 80 100" 
        stroke="#0891B2" 
        stroke-width="12" 
        fill="none" 
        stroke-linecap="round"/>
  
  <!-- Lower body shadow for 3D effect -->
  <path d="M 55 60 Q 65 75 70 85 Q 75 95 80 100" 
        stroke="#0E7490" 
        stroke-width="8" 
        fill="none" 
        stroke-linecap="round"
        opacity="0.6"/>
  
  <!-- Motion lines for dynamic effect -->
  <line x1="85" y1="75" x2="95" y2="75" stroke="#06B6D4" stroke-width="2" opacity="0.6"/>
  <line x1="87" y1="77" x2="97" y2="77" stroke="#06B6D4" stroke-width="2" opacity="0.4"/>
  <line x1="89" y1="79" x2="99" y2="79" stroke="#06B6D4" stroke-width="2" opacity="0.2"/>
</svg>